<?xml version="1.0" encoding="UTF-8" standalone="no"?>
<svg
   viewBox="0 0 100 100"
   version="1.1"
   id="svg78"
   sodipodi:docname="brightness.svg"
   width="100"
   height="100"
   inkscape:version="1.2.1 (9c6d41e410, 2022-07-14, custom)"
   xmlns:inkscape="http://www.inkscape.org/namespaces/inkscape"
   xmlns:sodipodi="http://sodipodi.sourceforge.net/DTD/sodipodi-0.dtd"
   xmlns="http://www.w3.org/2000/svg"
   xmlns:svg="http://www.w3.org/2000/svg">
  <defs
     id="defs82" />
  <sodipodi:namedview
     id="namedview80"
     pagecolor="#ffffff"
     bordercolor="#999999"
     borderopacity="1"
     inkscape:showpageshadow="0"
     inkscape:pageopacity="0"
     inkscape:pagecheckerboard="0"
     inkscape:deskcolor="#d1d1d1"
     showgrid="false"
     inkscape:zoom="9.3691649"
     inkscape:cx="34.047859"
     inkscape:cy="68.095717"
     inkscape:window-width="1920"
     inkscape:window-height="1020"
     inkscape:window-x="0"
     inkscape:window-y="1105"
     inkscape:window-maximized="1"
     inkscape:current-layer="svg78" />
  <g
     id="light_max"
     data-name="light max"
     transform="matrix(3.5714286,0,0,3.5714286,-7.1428571,-7.1428571)">
    <path
       d="m 16,9 a 7,7 0 1 0 7,7 7,7 0 0 0 -7,-7 z m 0,12 a 5,5 0 1 1 5,-5 5,5 0 0 1 -5,5 z"
       id="path59" />
    <path
       d="M 16,7 A 1,1 0 0 0 17,6 V 3 a 1,1 0 0 0 -2,0 v 3 a 1,1 0 0 0 1,1 z"
       id="path61" />
    <path
       d="m 16,25 a 1,1 0 0 0 -1,1 v 3 a 1,1 0 0 0 2,0 v -3 a 1,1 0 0 0 -1,-1 z"
       id="path63" />
    <path
       d="m 29,15 h -3 a 1,1 0 0 0 0,2 h 3 a 1,1 0 0 0 0,-2 z"
       id="path65" />
    <path
       d="M 7,16 A 1,1 0 0 0 6,15 H 3 a 1,1 0 0 0 0,2 h 3 a 1,1 0 0 0 1,-1 z"
       id="path67" />
    <path
       d="M 23.07,9.93 A 1,1 0 0 0 23.78,9.64 L 25.9,7.51 A 1,1 0 1 0 24.49,6.1 l -2.13,2.12 a 1,1 0 0 0 0,1.42 1,1 0 0 0 0.71,0.29 z"
       id="path69" />
    <path
       d="M 8.22,22.36 6.1,24.49 a 1,1 0 0 0 0,1.41 1,1 0 0 0 0.71,0.29 1,1 0 0 0 0.7,-0.29 L 9.64,23.78 A 1.0040916,1.0040916 0 0 0 8.22,22.36 Z"
       id="path71" />
    <path
       d="m 23.78,22.36 a 1.0040916,1.0040916 0 0 0 -1.42,1.42 l 2.13,2.12 a 1,1 0 0 0 0.7,0.29 1,1 0 0 0 0.71,-0.29 1,1 0 0 0 0,-1.41 z"
       id="path73" />
    <path
       d="m 8.22,9.64 a 1,1 0 0 0 0.71,0.29 1,1 0 0 0 0.71,-0.29 1,1 0 0 0 0,-1.42 L 7.51,6.1 A 1,1 0 0 0 6.1,7.51 Z"
       id="path75" />
  </g>
</svg>
