<?xml version="1.0" encoding="UTF-8" standalone="no"?>
<svg
   height="100"
   viewBox="0 -960 960 960"
   width="100"
   version="1.1"
   id="svg1"
   sodipodi:docname="battery_conservation.svg"
   xml:space="preserve"
   inkscape:version="1.3 (0e150ed6c4, 2023-07-21)"
   xmlns:inkscape="http://www.inkscape.org/namespaces/inkscape"
   xmlns:sodipodi="http://sodipodi.sourceforge.net/DTD/sodipodi-0.dtd"
   xmlns="http://www.w3.org/2000/svg"
   xmlns:svg="http://www.w3.org/2000/svg"><defs
     id="defs1" /><sodipodi:namedview
     id="namedview1"
     pagecolor="#ffffff"
     bordercolor="#999999"
     borderopacity="1"
     inkscape:showpageshadow="0"
     inkscape:pageopacity="0"
     inkscape:pagecheckerboard="0"
     inkscape:deskcolor="#d1d1d1"
     inkscape:zoom="16"
     inkscape:cx="31.0625"
     inkscape:cy="39.125"
     inkscape:window-width="1904"
     inkscape:window-height="1004"
     inkscape:window-x="8"
     inkscape:window-y="1113"
     inkscape:window-maximized="0"
     inkscape:current-layer="svg1" /><path
     d="m 310,-80 c -8.5,0 -15.625,-2.875 -21.375,-8.625 C 282.875,-94.375 280,-101.5 280,-110 v -676 c 0,-8.5 2.875,-15.625 8.625,-21.375 5.75,-5.75 12.875,-8.625 21.375,-8.625 h 90 v -64 h 160 v 64 h 90 c 8.5,0 15.625,2.875 21.375,8.625 5.75,5.75 8.625,12.875 8.625,21.375 v 333 c -10.66667,0 -21,0.66667 -31,2 -10,1.33333 -19.66667,3.66667 -29,7 V -756 H 340 v 616 h 152 c 6,11.33333 13,22 21,32 8,10 16.66667,19.333333 26,28 z"
     id="path1"
     sodipodi:nodetypes="ssssssccccssscscccccscs" /><path
     id="path5"
     style="display:inline;stroke-width:0.401536"
     d="m 678.47464,-404.1655 c -39.25926,0 -74.0662,14.23956 -101.44823,41.6216 -27.38204,27.38204 -41.6216,62.15379 -41.6216,101.41301 0,17.38493 2.87782,33.99181 8.69758,49.47406 4.17572,11.10824 9.73839,21.48894 16.4444,31.16337 l -15.63451,15.881 c -4.69213,4.69417 -7.88767,11.51788 -7.88767,18.52197 0,7.00544 3.19128,13.82557 7.88767,18.52196 4.69702,4.697 11.52099,7.88767 18.52197,7.88767 6.99905,0 13.78983,-3.19282 18.48675,-7.88767 l 15.91621,-15.63451 c 9.66197,6.65582 20.06094,12.17597 31.19858,16.37397 15.54609,5.85953 32.15306,8.768 49.43885,8.768 39.25877,0 74.03073,-14.23931 101.41301,-41.62159 27.38228,-27.38228 41.6216,-62.18898 41.6216,-101.44823 v -122.99849 -5.49321 -14.54291 h -14.54292 -1.05638 z m 0,53.20663 h 89.82798 v 89.82798 c 0,25.63727 -8.32543,45.79168 -26.19836,63.66484 -17.87345,17.87323 -37.99297,26.19836 -63.62962,26.19836 -10.65525,0 -20.62844,-1.7358 -30.17742,-5.17629 -4.17796,-1.50533 -8.04319,-3.28595 -11.7963,-5.24671 l 73.94698,-73.94699 c 4.81123,-4.8112 7.85247,-11.78389 7.85247,-18.76846 0,-6.96583 -3.06158,-13.94712 -7.92289,-18.73323 -4.69102,-4.65903 -11.47436,-7.81725 -18.45154,-7.81725 -7.00599,0 -13.82766,3.15817 -18.52195,7.85247 l -74.33434,73.9822 c -1.96921,-3.76456 -3.77153,-7.67473 -5.28193,-11.86674 -3.44031,-9.54846 -5.17628,-19.48696 -5.17628,-30.1422 0,-25.63726 8.32511,-45.79137 26.19836,-63.66483 17.87345,-17.87322 38.02817,-26.16315 63.66484,-26.16315 z" /><path
     d="m 638,-127 -99,-99 42,-42 57,56 141,-141 42,42 z"
     id="path1-7"
     style="display:none" /></svg>
