<?xml version="1.0" encoding="UTF-8" standalone="no"?>
<svg
   height="100"
   viewBox="0 -960 960 960"
   width="100"
   version="1.1"
   id="svg1"
   xml:space="preserve"
   xmlns="http://www.w3.org/2000/svg"
   xmlns:svg="http://www.w3.org/2000/svg"><defs
     id="defs1" /><path
     id="path1"
     d="M 399.99375 -879.99375 L 399.99375 -816 L 309.99375 -816 C 301.49376 -816 294.36874 -813.12499 288.61875 -807.375 C 286.84812 -805.60437 285.45664 -803.65015 284.23125 -801.61875 L 339.99375 -745.78125 L 339.99375 -756 L 620.00625 -756 L 620.00625 -465.39375 L 636.675 -448.70625 C 640.7379 -449.61283 644.81441 -450.43651 648.99375 -450.99375 C 658.99374 -452.32708 669.33959 -453 680.00625 -453 L 680.00625 -786 C 680.00625 -794.49999 677.13124 -801.62501 671.38125 -807.375 C 665.63126 -813.12499 658.50624 -816 650.00625 -816 L 560.00625 -816 L 560.00625 -879.99375 L 399.99375 -879.99375 z M 279.99375 -721.8 L 279.99375 -110.00625 C 279.99375 -101.50626 282.86876 -94.381244 288.61875 -88.63125 C 294.36874 -82.881256 301.49376 -80.00625 309.99375 -80.00625 L 539.00625 -80.00625 C 529.67293 -88.672908 520.99999 -98.00001 513 -108 C 505.00001 -117.99999 497.99999 -128.67293 492 -140.00625 L 339.99375 -140.00625 L 339.99375 -661.725 L 279.99375 -721.8 z " /><path
     id="path5"
     style="display:inline;stroke-width:0.401536"
     d="M 681.16875 -404.15625 L 734.2875 -350.9625 L 768.3 -350.9625 L 768.3 -316.9125 L 821.5125 -263.625 L 821.5125 -384.13125 L 821.5125 -389.625 L 821.5125 -404.15625 L 806.9625 -404.15625 L 805.9125 -404.15625 L 681.16875 -404.15625 z M 612.675 -388.6875 C 599.76536 -382.04683 587.8181 -373.33685 577.03125 -362.55 C 549.64924 -335.16799 535.40625 -300.39043 535.40625 -261.13125 C 535.40625 -243.74634 538.2865 -227.13223 544.10625 -211.65 C 548.28197 -200.54177 553.844 -190.16192 560.55 -180.4875 L 544.9125 -164.60625 C 540.22037 -159.91208 537.01875 -153.08533 537.01875 -146.08125 C 537.01875 -139.07582 540.21611 -132.27139 544.9125 -127.575 C 549.60952 -122.878 556.43653 -119.68125 563.4375 -119.68125 C 570.43654 -119.68125 577.22808 -122.88015 581.925 -127.575 L 597.84375 -143.19375 C 607.50571 -136.53794 617.90612 -131.023 629.04375 -126.825 C 644.58982 -120.96548 661.18298 -118.06875 678.46875 -118.06875 C 717.72748 -118.06875 752.50525 -132.29275 779.8875 -159.675 C 790.62788 -170.41538 799.30115 -182.3232 805.93125 -195.16875 L 765.13125 -236.00625 C 761.23796 -221.62283 753.69732 -209.06622 742.10625 -197.475 C 724.23282 -179.60179 704.10537 -171.2625 678.46875 -171.2625 C 667.81351 -171.2625 657.84897 -172.99701 648.3 -176.4375 C 644.12204 -177.94283 640.25936 -179.72674 636.50625 -181.6875 L 710.45625 -255.6375 C 715.26748 -260.4487 718.29375 -267.42169 718.29375 -274.40625 C 718.29375 -278.22853 717.34141 -282.03989 715.70625 -285.50625 L 702.8625 -298.3875 C 699.47697 -300.0014 695.74162 -300.95625 691.93125 -300.95625 C 684.92527 -300.95625 678.10054 -297.7943 673.40625 -293.1 L 599.0625 -219.13125 C 597.09329 -222.89581 595.30415 -226.78924 593.79375 -230.98125 C 590.35344 -240.5297 588.61875 -250.47602 588.61875 -261.13125 C 588.61875 -286.76848 596.93927 -306.91406 614.8125 -324.7875 C 626.43374 -336.40859 639.02639 -343.95741 653.45625 -347.83125 L 612.675 -388.6875 z " /><path
     d="m 638,-127 -99,-99 42,-42 57,56 141,-141 42,42 z"
     id="path1-7"
     style="display:none" /><path
     style="fill:#000000;fill-opacity:1;stroke-width:3.62835"
     d="m 83.999999,-834.00001 42.000001,-42 750,751.00003 -42,40.999993 z"
     id="path2" /></svg>
