<?xml version="1.0" encoding="UTF-8" standalone="no"?>
<svg
   height="100"
   viewBox="0 -960 960 960"
   width="100"
   version="1.1"
   id="svg1"
   sodipodi:docname="darkmode.svg"
   inkscape:version="1.3 (0e150ed6c4, 2023-07-21)"
   xmlns:inkscape="http://www.inkscape.org/namespaces/inkscape"
   xmlns:sodipodi="http://sodipodi.sourceforge.net/DTD/sodipodi-0.dtd"
   xmlns="http://www.w3.org/2000/svg"
   xmlns:svg="http://www.w3.org/2000/svg">
  <defs
     id="defs1" />
  <sodipodi:namedview
     id="namedview1"
     pagecolor="#ffffff"
     bordercolor="#999999"
     borderopacity="1"
     inkscape:showpageshadow="0"
     inkscape:pageopacity="0"
     inkscape:pagecheckerboard="0"
     inkscape:deskcolor="#d1d1d1"
     inkscape:zoom="7.84"
     inkscape:cx="50"
     inkscape:cy="50"
     inkscape:window-width="1920"
     inkscape:window-height="1020"
     inkscape:window-x="0"
     inkscape:window-y="1105"
     inkscape:window-maximized="1"
     inkscape:current-layer="svg1" />
  <path
     d="m 524,-120 q -84,0 -157.5,-32 -73.5,-32 -128,-86.5 Q 184,-293 152,-366.5 120,-440 120,-524 q 0,-146 93,-257.5 93,-111.5 237,-138.5 -18,98 11,192.635 29,94.635 100,165.736 71,71.101 165.5,100.143 94.5,29.041 193.5,11.015 -26,144.206 -138,237.338 Q 670,-120 524,-120 Z m 0,-60 q 100,0 182,-57 82,-57 132,-145 -90,-8 -173,-41.5 Q 582,-457 518.5,-520 455,-583 422,-665.5 389,-748 381,-837 293,-789 236.5,-706.5 180,-624 180,-524 180,-380.667 280.333,-280.333 380.667,-180 524,-180 Z m -6,-340 z"
     id="path1" />
</svg>
