<?xml version="1.0" encoding="UTF-8" standalone="no"?>
<svg
   height="100"
   viewBox="0 -960 960 960"
   width="100"
   version="1.1"
   id="svg1"
   sodipodi:docname="earphone_off.svg"
   xml:space="preserve"
   inkscape:version="1.3 (0e150ed6c4, 2023-07-21)"
   xmlns:inkscape="http://www.inkscape.org/namespaces/inkscape"
   xmlns:sodipodi="http://sodipodi.sourceforge.net/DTD/sodipodi-0.dtd"
   xmlns="http://www.w3.org/2000/svg"
   xmlns:svg="http://www.w3.org/2000/svg"><defs
     id="defs1"><inkscape:path-effect
       effect="powerclip"
       id="path-effect4"
       is_visible="true"
       lpeversion="1"
       inverse="true"
       flatten="false"
       hide_clip="false"
       message="Use fill-rule evenodd on &lt;b&gt;fill and stroke&lt;/b&gt; dialog if no flatten result after convert clip to paths." /><inkscape:path-effect
       effect="powerclip"
       id="path-effect1"
       is_visible="true"
       lpeversion="1"
       inverse="true"
       flatten="false"
       hide_clip="false"
       message="Use fill-rule evenodd on &lt;b&gt;fill and stroke&lt;/b&gt; dialog if no flatten result after convert clip to paths." /><inkscape:path-effect
       effect="powerclip"
       id="path-effect12"
       is_visible="true"
       lpeversion="1"
       inverse="true"
       flatten="false"
       hide_clip="false"
       message="Use fill-rule evenodd on &lt;b&gt;fill and stroke&lt;/b&gt; dialog if no flatten result after convert clip to paths." /><clipPath
       clipPathUnits="userSpaceOnUse"
       id="clipPath1"><path
         id="path1"
         style="font-variation-settings:normal;display:none;fill:#000000;fill-opacity:1;stroke:none;stroke-width:0.8;stroke-linecap:butt;stroke-linejoin:miter;stroke-miterlimit:4;stroke-dasharray:none;stroke-dashoffset:0;stroke-opacity:1;stop-color:#000000"
         d="m 1010.3516,420.59961 c -16.04538,0.12376 -31.84059,8.35116 -40.99642,21.55425 -8.509,12.00637 -11.49049,27.83314 -7.61822,42.06413 2.8479,10.83131 9.38151,20.63103 18.24339,27.47256 4.51954,3.78715 9.17599,7.45209 13.7776,11.05034 6.41675,5.01245 12.77635,10.09743 19.18345,15.12239 0.01,38.68621 -0.01,77.37246 0.082,116.0586 7.3014,-0.0163 14.6029,-0.0271 21.9043,0 0,-35.77149 -0.012,-71.54297 -0.016,-107.31446 6.4489,-1.44904 12.9787,-2.5876 19.3223,-4.46875 16.541,-4.99639 29.942,-19.13246 34.0896,-35.90275 3.5054,-13.76769 1.0615,-29.03418 -6.9824,-40.8001 -3.8847,-5.8465 -9.0621,-10.71811 -14.6939,-14.85911 -9.5386,-7.396 -18.8265,-15.12748 -28.6455,-22.15484 -8.227,-5.15185 -17.9351,-7.94999 -27.6506,-7.82226 z" /><path
         id="lpe_path-effect1"
         style="font-variation-settings:normal;display:block;fill:#000000;fill-opacity:1;stroke:none;stroke-width:0.8;stroke-linecap:butt;stroke-linejoin:miter;stroke-miterlimit:4;stroke-dasharray:none;stroke-dashoffset:0;stroke-opacity:1;stop-color:#000000"
         class="powerclip"
         d="M 935.73526,396.27237 H 1114.2335 V 678.19052 H 935.73526 Z m 74.61634,24.32724 c -16.04538,0.12376 -31.84059,8.35116 -40.99642,21.55425 -8.509,12.00637 -11.49049,27.83314 -7.61822,42.06413 2.8479,10.83131 9.38151,20.63103 18.24339,27.47256 4.51954,3.78715 9.17599,7.45209 13.7776,11.05034 6.41675,5.01245 12.77635,10.09743 19.18345,15.12239 0.01,38.68621 -0.01,77.37246 0.082,116.0586 7.3014,-0.0163 14.6029,-0.0271 21.9043,0 0,-35.77149 -0.012,-71.54297 -0.016,-107.31446 6.4489,-1.44904 12.9787,-2.5876 19.3223,-4.46875 16.541,-4.99639 29.942,-19.13246 34.0896,-35.90275 3.5054,-13.76769 1.0615,-29.03418 -6.9824,-40.8001 -3.8847,-5.8465 -9.0621,-10.71811 -14.6939,-14.85911 -9.5386,-7.396 -18.8265,-15.12748 -28.6455,-22.15484 -8.227,-5.15185 -17.9351,-7.94999 -27.6506,-7.82226 z" /></clipPath><clipPath
       clipPathUnits="userSpaceOnUse"
       id="clipPath4"><path
         style="display:none;fill:#000000;fill-opacity:1;stroke:#000000;stroke-width:1.01775;stroke-dasharray:none"
         d="m 905.66617,402.9448 14.84221,-14.84221 265.03942,265.39283 -14.8422,14.48882 z"
         id="path4" /><path
         id="lpe_path-effect4"
         style="display:inline;fill:#000000;fill-opacity:1;stroke:#000000;stroke-width:1.01775;stroke-dasharray:none"
         class="powerclip"
         d="M 935.73526,396.27237 H 1136.8438 V 678.19052 H 935.73526 Z m -30.06909,6.67243 265.03943,265.03944 14.8422,-14.48882 -265.03942,-265.39283 z" /></clipPath></defs><sodipodi:namedview
     id="namedview1"
     pagecolor="#ffffff"
     bordercolor="#999999"
     borderopacity="1"
     inkscape:showpageshadow="0"
     inkscape:pageopacity="0"
     inkscape:pagecheckerboard="0"
     inkscape:deskcolor="#d1d1d1"
     inkscape:zoom="4"
     inkscape:cx="31.25"
     inkscape:cy="72.375001"
     inkscape:window-width="1920"
     inkscape:window-height="1055"
     inkscape:window-x="0"
     inkscape:window-y="25"
     inkscape:window-maximized="1"
     inkscape:current-layer="svg1" /><g
     id="g13"
     transform="matrix(2.8297675,0,0,2.8297675,-2452.8247,-2000.2401)"
     clip-path="url(#clipPath4)"
     inkscape:path-effect="#path-effect4"><path
       id="path7"
       style="display:inline;fill:#000000;fill-opacity:1;stroke:none;stroke-width:0.377954;stroke-opacity:1"
       d="m 1103.2852,467.08008 a 69.682999,69.682999 0 0 1 5.4394,26.55078 69.682999,69.682999 0 0 1 -55.0293,68.11719 v 14.89257 a 60.6875,60.6875 0 0 0 17.4609,2.5918 60.6875,60.6875 0 0 0 60.6876,-60.6875 60.6875,60.6875 0 0 0 -28.5586,-51.46484 z"
       inkscape:original-d="m 1103.2852,467.08008 a 69.682999,69.682999 0 0 1 5.4394,26.55078 69.682999,69.682999 0 0 1 -55.0293,68.11719 v 14.89257 a 60.6875,60.6875 0 0 0 17.4609,2.5918 60.6875,60.6875 0 0 0 60.6876,-60.6875 60.6875,60.6875 0 0 0 -28.5586,-51.46484 z" /><circle
       style="font-variation-settings:normal;opacity:1;fill:#000000;fill-opacity:1;stroke:none;stroke-width:1.04236;stroke-linecap:butt;stroke-linejoin:miter;stroke-miterlimit:4;stroke-dasharray:none;stroke-dashoffset:0;stroke-opacity:1"
       id="path10"
       cx="1039.3464"
       cy="488.8548"
       r="15.857736"
       d="m 1055.2042,488.8548 a 15.857736,15.857736 0 0 1 -15.8578,15.85773 15.857736,15.857736 0 0 1 -15.8577,-15.85773 15.857736,15.857736 0 0 1 15.8577,-15.85774 15.857736,15.857736 0 0 1 15.8578,15.85774 z" /><path
       id="path1-1"
       style="font-variation-settings:normal;display:inline;opacity:1;fill:#000000;fill-opacity:1;stroke:#000000;stroke-width:1.01775146;stroke-linecap:butt;stroke-linejoin:miter;stroke-miterlimit:4;stroke-dasharray:none;stroke-dashoffset:0;stroke-opacity:1;stop-color:#000000;stop-opacity:1"
       d="m 1010.9277,401.78125 a 69.682999,69.682999 0 0 0 -69.68356,69.68359 69.682999,69.682999 0 0 0 26.5957,54.56836 l -0.0566,0.15235 26.37305,20.79297 v 104.70312 c 0,11.63399 9.36601,21 20.99991,21 h 17.5391 c 11.634,0 21,-9.36601 21,-21 v -89.93359 a 69.682999,69.682999 0 0 0 55.0293,-68.11719 69.682999,69.682999 0 0 0 -26.5508,-54.70508 l 0.012,-0.0156 -28.1152,-22.16602 -0.018,0.01 a 69.682999,69.682999 0 0 0 -43.125,-14.97266 z"
       clip-path="url(#clipPath1)"
       inkscape:path-effect="#path-effect1"
       inkscape:original-d="m 1010.9277,401.78125 a 69.682999,69.682999 0 0 0 -69.68356,69.68359 69.682999,69.682999 0 0 0 26.5957,54.56836 l -0.0566,0.15235 26.37305,20.79297 v 104.70312 c 0,11.63399 9.36601,21 20.99991,21 h 17.5391 c 11.634,0 21,-9.36601 21,-21 v -89.93359 a 69.682999,69.682999 0 0 0 55.0293,-68.11719 69.682999,69.682999 0 0 0 -26.5508,-54.70508 l 0.012,-0.0156 -28.1152,-22.16602 -0.018,0.01 a 69.682999,69.682999 0 0 0 -43.125,-14.97266 z" /></g><path
     style="display:inline;fill:#000000;fill-opacity:1;stroke:#000000;stroke-width:2.88;stroke-dasharray:none"
     d="m 68,-818 42,-42 750,751 -42,41.000003 z"
     id="path2" /></svg>
