<?xml version="1.0" encoding="UTF-8" standalone="no"?>
<svg
   height="100"
   viewBox="0 -960 960 960"
   width="100"
   version="1.1"
   id="svg1"
   sodipodi:docname="redshift_off.svg"
   xml:space="preserve"
   inkscape:version="1.3 (0e150ed6c4, 2023-07-21)"
   xmlns:inkscape="http://www.inkscape.org/namespaces/inkscape"
   xmlns:sodipodi="http://sodipodi.sourceforge.net/DTD/sodipodi-0.dtd"
   xmlns="http://www.w3.org/2000/svg"
   xmlns:svg="http://www.w3.org/2000/svg"><defs
     id="defs1" /><sodipodi:namedview
     id="namedview1"
     pagecolor="#ffffff"
     bordercolor="#999999"
     borderopacity="1"
     inkscape:showpageshadow="0"
     inkscape:pageopacity="0"
     inkscape:pagecheckerboard="0"
     inkscape:deskcolor="#d1d1d1"
     inkscape:zoom="4"
     inkscape:cx="45"
     inkscape:cy="63.25"
     inkscape:window-width="1920"
     inkscape:window-height="1020"
     inkscape:window-x="0"
     inkscape:window-y="1105"
     inkscape:window-maximized="1"
     inkscape:current-layer="svg1" /><path
     id="path1"
     style="display:inline"
     d="M 480 -800.00625 C 413.23961 -800.00625 350.87238 -786.96291 292.89375 -760.93125 L 338.56875 -715.18125 C 383.29316 -731.70096 430.48364 -740.00625 480.16875 -740.00625 C 560.94734 -740.00625 635.1204 -718.16037 702.675 -674.49375 C 770.22893 -630.82713 821.67295 -572.67284 857.00625 -500.00625 C 824.34718 -432.83949 777.69573 -378.22169 717.4125 -335.83125 L 759.13125 -294.05625 C 830.2237 -347.85244 883.86311 -416.50314 920.00625 -500.00625 C 881.33962 -589.33949 822.66659 -661.66672 744 -717 C 665.33341 -772.33328 577.33324 -800.00625 480 -800.00625 z M 238.2 -731.64375 C 230.72635 -726.97841 223.31236 -722.14344 216 -717 C 137.33341 -661.66672 78.660378 -589.33949 39.99375 -500.00625 C 78.660378 -410.67301 137.33341 -338.32703 216 -282.99375 C 294.66659 -227.66047 382.66676 -200.00625 480 -200.00625 C 563.04027 -200.00625 639.25917 -220.21819 708.7125 -260.49375 L 665.0625 -304.2 C 607.69191 -274.90067 546.00014 -260.00625 479.83125 -260.00625 C 399.05266 -260.00625 324.8796 -281.83338 257.325 -325.5 C 189.77107 -369.16662 137.99996 -427.33966 102 -500.00625 C 137.99996 -572.67284 189.82715 -630.82713 257.49375 -674.49375 C 265.2841 -679.52102 273.1921 -684.18276 281.15625 -688.63125 L 238.2 -731.64375 z M 479.8875 -669.99375 C 451.28193 -669.99375 425.32573 -663.85286 401.94375 -651.73125 L 446.4375 -607.18125 C 457.01903 -610.36848 468.28651 -612 480.24375 -612 C 511.42039 -612 537.83335 -601.08581 559.5 -579.2625 C 581.16665 -557.43852 591.99375 -530.93847 591.99375 -499.7625 C 591.99375 -487.87797 590.40247 -476.7026 587.23125 -466.2 L 631.59375 -421.78125 C 643.804 -445.28011 650.00625 -471.37417 650.00625 -500.11875 C 650.00625 -547.37337 633.45363 -587.49378 600.375 -620.49375 C 567.29703 -653.49372 527.14279 -669.99375 479.8875 -669.99375 z M 354.6375 -615.0375 C 325.00723 -582.98948 309.99375 -544.65267 309.99375 -499.875 C 309.99375 -452.62038 326.54637 -412.49997 359.625 -379.5 C 392.70297 -346.50003 432.85721 -330 480.1125 -330 C 524.75494 -330 562.96106 -344.95238 594.88125 -374.475 L 553.8375 -415.575 C 533.08089 -397.26419 508.41637 -387.99375 479.75625 -387.99375 C 448.57961 -387.99375 422.16665 -398.90794 400.5 -420.73125 C 378.83335 -442.55523 368.00625 -469.05528 368.00625 -500.23125 C 368.00625 -528.83104 377.29763 -553.37811 395.6625 -573.975 L 354.6375 -615.0375 z " /><path
     style="display:inline;fill:#000000;fill-opacity:1;stroke-width:3.62835"
     d="m 68,-818 42,-42 750,751 -42,41.000003 z"
     id="path3" /></svg>
