<?xml version="1.0" encoding="UTF-8" standalone="no"?>
<svg
   height="100"
   viewBox="0 -960 960 960"
   width="100"
   version="1.1"
   id="svg1"
   xmlns="http://www.w3.org/2000/svg"
   xmlns:svg="http://www.w3.org/2000/svg">
  <defs
     id="defs1" />
  <path
     id="path1"
     d="M 279.99375 -879.99375 C 257.99377 -879.99375 239.16665 -872.16665 223.5 -856.5 C 214.15094 -847.15094 207.65752 -836.64192 203.8875 -825.0375 L 279.99375 -748.81875 L 279.99375 -800.00625 L 680.00625 -800.00625 L 680.00625 -348.28125 L 759.99375 -268.18125 L 759.99375 -800.00625 C 759.99375 -822.00623 752.16665 -840.83335 736.5 -856.5 C 720.83335 -872.16665 702.00623 -879.99375 680.00625 -879.99375 L 279.99375 -879.99375 z M 480 -759.99375 C 458.00002 -759.99375 439.1729 -752.16665 423.50625 -736.5 C 407.8396 -720.83335 399.99375 -702.00623 399.99375 -680.00625 C 399.99375 -658.00627 407.8396 -639.1604 423.50625 -623.49375 C 439.1729 -607.8271 458.00002 -600 480 -600 C 501.99998 -600 520.8271 -607.8271 536.49375 -623.49375 C 552.1604 -639.1604 560.00625 -658.00627 560.00625 -680.00625 C 560.00625 -702.00623 552.1604 -720.83335 536.49375 -736.5 C 520.8271 -752.16665 501.99998 -759.99375 480 -759.99375 z M 200.00625 -744.99375 L 200.00625 -159.99375 C 200.00625 -137.99377 207.83335 -119.16665 223.5 -103.5 C 239.16665 -87.833349 257.99377 -80.00625 279.99375 -80.00625 L 680.00625 -80.00625 C 702.00623 -80.00625 720.83335 -87.833349 736.5 -103.5 C 752.16665 -119.16665 759.99375 -137.99377 759.99375 -159.99375 L 759.99375 -185.00625 L 680.00625 -264.99375 L 680.00625 -159.99375 L 279.99375 -159.99375 L 279.99375 -665.00625 L 200.00625 -744.99375 z M 511.36875 -517.125 L 637.1625 -391.18125 C 631.36833 -422.06359 616.66624 -449.34626 593.00625 -473.00625 C 569.39367 -496.61883 542.17477 -511.30671 511.36875 -517.125 z M 432.01875 -512.98125 C 407.9546 -505.56282 386.26595 -492.27845 366.99375 -473.00625 C 335.66045 -441.67295 320.00625 -403.99996 320.00625 -360 C 320.00625 -316.00004 335.66045 -278.32705 366.99375 -246.99375 C 398.32705 -215.66045 436.00004 -200.00625 480 -200.00625 C 523.99996 -200.00625 561.67295 -215.66045 593.00625 -246.99375 C 612.27845 -266.26595 625.56282 -287.9546 632.98125 -312.01875 L 553.875 -391.125 C 557.93652 -381.56533 560.00625 -371.20156 560.00625 -360 C 560.00625 -338.00002 552.1604 -319.1729 536.49375 -303.50625 C 520.8271 -287.8396 501.99998 -279.99375 480 -279.99375 C 458.00002 -279.99375 439.1729 -287.8396 423.50625 -303.50625 C 407.8396 -319.1729 399.99375 -338.00002 399.99375 -360 C 399.99375 -381.99998 407.8396 -400.8271 423.50625 -416.49375 C 439.1729 -432.1604 458.00002 -440.00625 480 -440.00625 C 491.20156 -440.00625 501.56533 -437.93652 511.125 -433.875 L 432.01875 -512.98125 z " />
  <path
     style="fill:#000000;stroke:none;stroke-width:47.7128;paint-order:stroke fill markers;fill-opacity:1"
     d="M 56,-806 97.999997,-848 848,-97.000003 806,-55.999997 Z"
     id="path2" />
</svg>
