<?xml version="1.0" encoding="UTF-8" standalone="no"?>
<svg
   height="100"
   viewBox="0 -960 960 960"
   width="100"
   version="1.1"
   id="svg1"
   sodipodi:docname="volume_max.svg"
   inkscape:version="1.3 (0e150ed6c4, 2023-07-21)"
   xmlns:inkscape="http://www.inkscape.org/namespaces/inkscape"
   xmlns:sodipodi="http://sodipodi.sourceforge.net/DTD/sodipodi-0.dtd"
   xmlns="http://www.w3.org/2000/svg"
   xmlns:svg="http://www.w3.org/2000/svg">
  <defs
     id="defs1" />
  <sodipodi:namedview
     id="namedview1"
     pagecolor="#ffffff"
     bordercolor="#999999"
     borderopacity="1"
     inkscape:showpageshadow="0"
     inkscape:pageopacity="0"
     inkscape:pagecheckerboard="0"
     inkscape:deskcolor="#d1d1d1"
     inkscape:zoom="7.84"
     inkscape:cx="50"
     inkscape:cy="50"
     inkscape:window-width="1920"
     inkscape:window-height="1020"
     inkscape:window-x="0"
     inkscape:window-y="1105"
     inkscape:window-maximized="1"
     inkscape:current-layer="svg1" />
  <path
     d="M 326,-480 Z"
     id="path5" />
  <path
     d="M 420,-648 307,-540 H 180 v 120 h 127 l 113,109 z"
     id="path4" />
  <path
     d="m 540,-312 v -337 q 55,17 87.5,64 32.5,47 32.5,105 0,57 -33,104 -33,47 -87,64 z"
     id="path3" />
  <path
     d="m 120,-360 v -240 h 160 l 200,-200 v 640 L 280,-360 Z"
     id="path2" />
  <path
     d="m 560,-131 v -62 Q 657,-221 718.5,-300.5 780,-380 780,-481 q 0,-101 -61,-181 -61,-80 -159,-107 v -62 q 124,28 202,125.5 78,97.5 78,224.5 0,127 -78,224.5 -78,97.5 -202,125.5 z"
     id="path1" />
</svg>
