<?xml version="1.0" encoding="UTF-8" standalone="no"?>
<svg
   height="100"
   viewBox="0 -960 960 960"
   width="100"
   version="1.1"
   id="svg1"
   xml:space="preserve"
   xmlns="http://www.w3.org/2000/svg"
   xmlns:svg="http://www.w3.org/2000/svg"><defs
     id="defs1" /><path
     id="path2"
     style="display:inline"
     d="M 480 -800.00625 L 382.85625 -702.8625 L 480 -605.5875 L 480 -800.00625 z M 340.85625 -660.8625 L 279.99375 -600 L 120 -600 L 120 -360 L 279.99375 -360 L 480 -159.99375 L 480 -521.53125 L 340.85625 -660.8625 z " /><path
     id="path1"
     style="display:inline"
     d="M 611.00625 -635.00625 L 567.99375 -591.99375 L 681.99375 -479.00625 L 644.00625 -441.35625 L 686.325 -399 L 723.99375 -437.00625 L 837 -323.00625 L 879.99375 -366 L 765.99375 -479.00625 L 879.99375 -591.99375 L 837 -635.00625 L 723.99375 -521.00625 L 611.00625 -635.00625 z M 601.8375 -399.54375 L 567.99375 -366 L 611.00625 -323.00625 L 644.5125 -356.8125 L 601.8375 -399.54375 z " /><path
     style="fill:#000000;stroke-width:3.62835"
     d="m 84,-834 42,-42 750,751 -42,41.000002 z"
     id="path3" /></svg>
